<?xml version="1.0" encoding="UTF-8" standalone="no"?>
<svg
   xmlns:dc="http://purl.org/dc/elements/1.1/"
   xmlns:cc="http://creativecommons.org/ns#"
   xmlns:rdf="http://www.w3.org/1999/02/22-rdf-syntax-ns#"
   xmlns:svg="http://www.w3.org/2000/svg"
   xmlns="http://www.w3.org/2000/svg"
   viewBox="0 0 256 256"
   id="RSSicon"
   height="128px"
   width="128px"
   version="1.1">
  <metadata
     id="metadata34">
    <rdf:RDF>
      <cc:Work
         rdf:about="">
        <dc:format>image/svg+xml</dc:format>
        <dc:type
           rdf:resource="http://purl.org/dc/dcmitype/StillImage" />
        <dc:title></dc:title>
      </cc:Work>
    </rdf:RDF>
  </metadata>
  <defs
     id="defs17">
    <linearGradient
       id="RSSg"
       y2="0.915"
       x2="0.915"
       y1="0.085"
       x1="0.085">
      <stop
         id="stop2"
         stop-color="#E3702D"
         offset="0.0" />
      <stop
         id="stop4"
         stop-color="#EA7D31"
         offset="0.1071" />
      <stop
         id="stop6"
         stop-color="#F69537"
         offset="0.3503" />
      <stop
         id="stop8"
         stop-color="#FB9E3A"
         offset="0.5" />
      <stop
         id="stop10"
         stop-color="#EA7C31"
         offset="0.7016" />
      <stop
         id="stop12"
         stop-color="#DE642B"
         offset="0.8866" />
      <stop
         id="stop14"
         stop-color="#D95B29"
         offset="1.0" />
    </linearGradient>
  </defs>
  <rect
     id="rect19"
     fill="#CC5D15"
     y="0"
     x="0"
     ry="55"
     rx="55"
     height="256"
     width="256" />
  <rect
     id="rect21"
     fill="#F49C52"
     y="5"
     x="5"
     ry="50"
     rx="50"
     height="246"
     width="246" />
  <rect
     id="rect23"
     fill="url(#RSSg)"
     y="10"
     x="10"
     ry="47"
     rx="47"
     height="236"
     width="236" />
  <g
     transform="matrix(-0.60487245,0.60487245,-0.60487245,-0.60487245,286.95222,151.12238)"
     id="g43">
    <circle
       style="fill:#ffffff"
       cx="68"
       cy="189"
       r="24"
       id="circle25" />
    <path
       style="fill:#ffffff"
       d="M 160,213 H 126 A 82,82 0 0 0 44,131 V 97 a 116,116 0 0 1 116,116 z"
       id="path27" />
    <g
       id="g37">
      <path
         style="fill:#ffffff"
         id="path29"
         d="M 184,213 A 140,140 0 0 0 44,73 V 38 a 175,175 0 0 1 175,175 z" />
    </g>
  </g>
</svg>
